<svg xmlns="http://www.w3.org/2000/svg" width="468px" height="302px" viewBox="0 0 460 350">
    <defs>
        <style>.cls-2{fill:#534acc}.cls-3,.cls-9{fill:#30219e}.cls-4{fill:#8383ea}.cls-5{fill:#201547}.cls-7{fill:none;stroke-miterlimit:10;stroke:#201547;stroke-width:8px}.cls-9{fill-rule:evenodd}</style>
    </defs>
    <path fill="#cacaff" d="M67.88 67.2h269.17v187.68H67.88z"/>
    <path d="M89.27 89.1h50.25v50.25H89.27z" class="cls-2"/>
    <path d="M183.53 89.1H337v50.25H183.53a25.12 25.12 0 01-25.12-25.12 25.12 25.12 0 0125.12-25.13z" class="cls-3"/>
    <circle cx="89.91" cy="237.27" r="76.26" class="cls-3"/>
    <circle cx="89.91" cy="237.27" r="64.52" class="cls-4"/>
    <circle cx="89.91" cy="237.27" r="40.66" class="cls-2"/>
    <path d="M96.47 244.32a9.63 9.63 0 11-13.61-13.62c3.76-3.76 43.16-29.54 43.16-29.54s-25.79 39.4-29.55 43.16z" class="cls-3"/>
    <path d="M83.35 230.21A9.63 9.63 0 1197 243.83c-3.76 3.76-43.16 29.54-43.16 29.54S79.59 234 83.35 230.21z" class="cls-3"/>
    <path d="M82.86 243.83a9.63 9.63 0 1113.61-13.62C100.23 234 126 273.37 126 273.37s-39.38-25.78-43.14-29.54z" class="cls-3"/>
    <path d="M97 230.7a9.63 9.63 0 11-13.61 13.62c-3.76-3.76-29.55-43.16-29.55-43.16S93.2 226.94 97 230.7z" class="cls-3"/>
    <path d="M106 237.84a16.07 16.07 0 01-32.13 0c0-8.87 16.07-85.79 16.07-85.79S106 229 106 237.84z" class="cls-5"/>
    <path d="M73.84 236.69a16.07 16.07 0 0132.13 0c0 8.87-16.06 85.79-16.06 85.79s-16.07-76.92-16.07-85.79z" class="cls-5"/>
    <path d="M89.33 253.33a16.07 16.07 0 010-32.13c8.87 0 85.79 16.07 85.79 16.07s-76.92 16.06-85.79 16.06z" class="cls-5"/>
    <path d="M90.48 221.2a16.07 16.07 0 110 32.13c-8.87 0-85.78-16.06-85.78-16.06s76.91-16.07 85.78-16.07z" class="cls-5"/>
    <circle cx="89.91" cy="237.27" r="7.05" class="cls-4"/>
    <circle cx="299.96" cy="217.8" r="18.54" fill="none" stroke="#30219e" stroke-miterlimit="10" stroke-width="3.71"/>
    <path d="M297.7 213.57h4.51v16.24h-4.51z" class="cls-3"/>
    <circle cx="299.96" cy="208.04" r="2.26" class="cls-3"/>
    <path d="M179.66 167.45h86.75M179.66 182.53h86.75M179.66 197.6h64.14M179.66 212.15h43.37" class="cls-7"/>
    <path fill="#534acc" fill-rule="evenodd" d="M297.83 106.42h78.43V27.99H315.3l-17.47 17.46v60.97z"/>
    <path d="M297.83 45.45h17.47V27.99l-17.47 17.46zM376.26 191.27h78.44v-78.43h-60.97l-17.47 17.46v60.97z" class="cls-9"/>
    <path fill="#201547" fill-rule="evenodd" d="M376.26 130.3h17.47v-17.46l-17.47 17.46z"/>
</svg>