<svg xmlns="http://www.w3.org/2000/svg" width="468px" height="302px" viewBox="0 0 460 350">
    <defs>
        <style>.cls-1{fill:#cacaff}.cls-2{fill:#201547}.cls-3{fill:#534acc}.cls-4{fill:#8383ea}.cls-5{fill:none;stroke:#cacaff;stroke-miterlimit:10;stroke-width:8.9px}.cls-6{fill:#30219e}</style>
    </defs>
    <path d="M82.36 126.94h132.1v120.33H37.83v-75.8a44.52 44.52 0 0144.53-44.53z" class="cls-1" transform="rotate(-180 126.145 187.11)"/>
    <path d="M37.83 247.36v39.07l38.55-39.31-38.55.24z" class="cls-1"/>
    <path d="M5.88 93.07h67.74v67.74H5.88z" class="cls-2"/>
    <circle cx="16.35" cy="103.54" r="3.36" class="cls-3"/>
    <circle cx="26.62" cy="103.54" r="3.36" class="cls-4"/>
    <circle cx="36.89" cy="103.54" r="3.36" class="cls-1"/>
    <path d="M166 57.88h212.82v145H221.69A55.66 55.66 0 01166 147.19V57.88z" class="cls-3"/>
    <path d="M378.82 202.04v47.07l-46.44-47.36 46.44.29z" class="cls-3"/>
    <path d="M209.72 95.17h125.42M209.72 118.83h125.42M209.72 142.49h92.73M209.72 165.56h62.71" class="cls-5"/>
    <circle cx="265.38" cy="277.1" r="49.98" class="cls-4"/>
    <path d="M228.66 278.68a19.26 19.26 0 1037.86 7.09z" class="cls-6"/>
    <path d="M127.9 200.37h-8.53v-2.24a15 15 0 011.37-6.82 20.66 20.66 0 015.48-6 40.73 40.73 0 004.91-4.38 5.83 5.83 0 001.24-3.61 6.08 6.08 0 00-2.19-4.7 8.54 8.54 0 00-5.9-2 9 9 0 00-6 2 10.84 10.84 0 00-3.31 6.22l-8.62-1.07a14.3 14.3 0 015.09-10.16q4.74-4.19 12.42-4.18 8.09 0 12.87 4.23a12.79 12.79 0 014.78 9.84 10.82 10.82 0 01-1.75 5.89q-1.75 2.78-7.51 7.55a14.42 14.42 0 00-3.69 4 13.23 13.23 0 00-.66 5.43zm-8.53 12.94v-8.58H128v8.58z" class="cls-2"/>
    <path d="M418.22 23.5h37.66v23.61q0 16.35-2.88 25.8a39.41 39.41 0 01-10.65 17 54.4 54.4 0 01-19.84 11.8l-7.38-15.55q11.26-3.77 16.16-10.46t5.16-17.83h-18.23zm-59.54 0h37.67v23.61q0 16.49-2.88 25.87a39.28 39.28 0 01-10.72 16.89 55.16 55.16 0 01-19.75 11.8l-7.4-15.55q11.26-3.77 16.15-10.46t5.16-17.83h-18.23z" class="cls-6"/>
</svg>