<svg xmlns="http://www.w3.org/2000/svg" width="468px" height="302px" viewBox="0 0 460 350">
    <defs>
        <style>.cls-1{fill:#cacaff}.cls-3{fill:#201547}.cls-4{fill:#8383ea}.cls-5{fill:#30219e}.cls-6,.cls-9{fill:none;stroke:#201547;stroke-miterlimit:10}.cls-6{stroke-width:4.15px}.cls-8{fill:#534acc}.cls-9{stroke-width:6.22px}</style>
    </defs>
    <path d="M149.15 87.13h197.07v160.98H149.15z" class="cls-1" transform="rotate(-13 247.588 167.573)"/>
    <path fill="#201547" fill-rule="evenodd" d="M297.64 168.09L279 152.32a5.87 5.87 0 00-9.16 2.12l-8.78 19.92-6.9-6.32-25.61-23.47a5.87 5.87 0 00-9.43 2.17l-12.73 32.33L194.61 209a5.87 5.87 0 006.79 7.87l36.9-8.51 8.69-2 37.64-8.69 1.44-.33 24.79-5.72a5.87 5.87 0 002.47-10.2z"/>
    <circle cx="278.74" cy="126.68" r="9.73" class="cls-3"/>
    <path d="M324.2 195.98h96.14v96.14H324.2z" class="cls-3" transform="rotate(-13 372.28 244.06)"/>
    <path d="M343.09 222.41l45.91-10.6 3.75 16.19-6.54 1.51-2.21-9.66-12.81 3 9.42 40.8 9.72-2.24 1.51 6.53-26.76 6.18-1.51-6.53 9.71-2.25-9.42-40.8-12.72 2.94 2.23 9.62-6.54 1.51z" class="cls-4"/>
    <path d="M398.87 177.71h17.66v17.66h-17.66z" class="cls-4" transform="rotate(-13 407.686 186.525)"/>
    <path d="M420.49 271.38h17.66v17.66h-17.66z" class="cls-4" transform="rotate(-13 429.33 280.21)"/>
    <path d="M327.42 292.86h17.66v17.66h-17.66z" class="cls-4" transform="rotate(-13 336.24 301.7)"/>
    <path d="M305.79 199.2h17.66v17.66h-17.66z" class="cls-4" transform="rotate(-13 314.64 208.02)"/>
    <circle cx="225.71" cy="312.48" r="27.05" class="cls-5"/>
    <path d="M99.25 89.73a38.15 38.15 0 0170.34-29.55M83.48 54.98l71.92-30.21" class="cls-6"/>
    <circle cx="157.61" cy="23.84" r="4.04" class="cls-5"/>
    <circle cx="81.49" cy="55.82" r="4.04" class="cls-5"/>
    <path d="M114.83 34.96h9.64v9.64h-9.64z" class="cls-5" transform="rotate(-22.79 119.618 39.779)"/>
    <path d="M96.3 89.35h9.64v9.64H96.3z" class="cls-5" transform="rotate(-22.79 101.094 94.157)"/>
    <path d="M166.63 59.8h9.64v9.64h-9.64z" class="cls-5" transform="rotate(-22.79 171.431 64.627)"/>
    <path d="M398.64 120.33c9.69-11.34 26.92-10 26.92-10l8.49-60.95a4.76 4.76 0 00-7-4.55L374.69 77.1s8.14 15.24 1.65 28.68z" class="cls-1"/>
    <path fill="none" stroke="#201547" stroke-miterlimit="10" stroke-width="5.09" d="M431.9 45.03l-25.33 38.8"/>
    <circle cx="404.69" cy="86.71" r="5.87" class="cls-3"/>
    <path d="M363.85 111.97h39.96v13.41h-39.96z" class="cls-5" transform="rotate(33.14 383.827 118.67)"/>
    <path d="M292.89 22.7L250.68 9.79 218.39 39.9l9.93 43.02 42.22 12.91 32.29-30.11-9.94-43.02z" class="cls-8"/>
    <path d="M32.42 137.63h139.9v127.75H32.42z" class="cls-8" transform="rotate(12.92 102.378 201.476)"/>
    <path d="M56.47 147.46h38.75v38.75H56.47z" class="cls-1" transform="rotate(12.92 75.824 166.825)"/>
    <path d="M114.35 161.52l48.98 11.23M111.27 174.96l48.97 11.23M108.19 188.4l24.48 5.62" class="cls-9"/>
    <path d="M44.01 201.77h38.75v38.75H44.01z" class="cls-1" transform="rotate(12.92 63.369 221.144)"/>
    <path d="M101.9 215.82l48.97 11.24M98.81 229.27l48.98 11.23M95.73 242.71l24.48 5.62" class="cls-9"/>
</svg>