<?xml version="1.0" encoding="UTF-8"?>
<svg width="40px" height="40px" viewBox="0 0 40 40" fill="none" xmlns="http://www.w3.org/2000/svg">
  <path d="M24.2221 17.0593C20.7036 17.0593 17.748 14.1037 17.748 10.5852V8.47407C17.748 4.95556 20.7036 2 24.2221 2C27.7406 2 30.5555 4.95556 30.5555 8.47407V10.7259C30.5555 14.2444 27.7406 17.0593 24.2221 17.0593Z" fill="#30219E"/>
  <path d="M38.9999 37.1852H9.44434V28.6C9.44434 23.3926 13.8073 19.0297 19.0147 19.0297H29.4295C34.6369 19.0297 38.9999 23.3926 38.9999 28.6V37.1852Z" fill="#30219E"/>
  <path d="M15.7778 17.0593C12.2593 17.0593 9.30371 14.1037 9.30371 10.5852V8.47407C9.30371 4.95556 12.2593 2 15.7778 2C19.2963 2 22.2519 4.95556 22.2519 8.47407V10.7259C22.2519 14.2444 19.2963 17.0593 15.7778 17.0593Z" fill="#8383EA"/>
  <path d="M30.5556 37.1852H1V28.6C1 23.3926 5.36296 19.0297 10.5704 19.0297H20.9852C26.1926 19.0297 30.5556 23.3926 30.5556 28.6V37.1852Z" fill="#8383EA"/>
</svg>
