<?xml version="1.0" encoding="UTF-8"?>
<svg width="40px" height="40px" viewBox="0 0 40 40" fill="none" xmlns="http://www.w3.org/2000/svg">
  <path d="M15.9389 33.2567C21.6094 28.8122 29.5787 31.1111 29.5787 31.1111L39.6937 3.06511C40.0002 2.14557 39.6937 1.37928 39.0806 0.766257C38.4676 0.306487 37.7013 -2.68668e-05 36.7818 0.306487L8.88907 10.4214C8.88907 10.4214 11.1879 18.3908 6.89673 24.0613L15.9389 33.2567Z" fill="#CACAFF"/>
  <path d="M38.1153 0.00179177L22.3271 15.8571L24.0647 17.5873L39.8528 1.732L38.1153 0.00179177Z" fill="#534ACC"/>
  <path d="M22.0692 20.6897C23.5927 20.6897 24.8278 19.4547 24.8278 17.9311C24.8278 16.4076 23.5927 15.1725 22.0692 15.1725C20.5456 15.1725 19.3105 16.4076 19.3105 17.9311C19.3105 19.4547 20.5456 20.6897 22.0692 20.6897Z" fill="#534ACC"/>
  <path d="M18.2763 35.5406L4.59106 21.9171L0.0499161 26.4789L13.7352 40.1023L18.2763 35.5406Z" fill="#30219E"/>
</svg>
