<?xml version="1.0" encoding="UTF-8"?>
<svg width="32px" height="32px" viewBox="0 0 32 32" version="1.1" xmlns="http://www.w3.org/2000/svg" xmlns:xlink="http://www.w3.org/1999/xlink">
    <path d="M1.52380952,7.04761905 L30.4761905,7.04761905 C31.3177672,7.04761905 32,6.36538629 32,5.52380952 C32,4.68223276 31.3177672,4 30.4761905,4 L1.52380952,4 C0.682232762,4 0,4.68223276 0,5.52380952 C0,6.36538629 0.682232762,7.04761905 1.52380952,7.04761905 Z M1.52380952,17.7142857 L30.4761905,17.7142857 C31.3177672,17.7142857 32,17.032053 32,16.1904762 C32,15.3488994 31.3177672,14.6666667 30.4761905,14.6666667 L1.52380952,14.6666667 C0.682232762,14.6666667 0,15.3488994 0,16.1904762 C0,17.032053 0.682232762,17.7142857 1.52380952,17.7142857 Z M1.52380952,28.3809524 L30.4761905,28.3809524 C31.3177672,28.3809524 32,27.6987196 32,26.8571429 C32,26.0155661 31.3177672,25.3333333 30.4761905,25.3333333 L1.52380952,25.3333333 C0.682232762,25.3333333 0,26.0155661 0,26.8571429 C0,27.6987196 0.682232762,28.3809524 1.52380952,28.3809524 Z"></path>
</svg>