<?xml version="1.0" encoding="UTF-8"?>
<svg width="40px" height="40px" viewBox="0 0 40 40" fill="none" xmlns="http://www.w3.org/2000/svg">
  <path d="M34.7078 15.8035C34.7078 7.39306 27.7896 0.610448 19.2435 1.0174C11.3757 1.28871 5 7.93567 5 15.8035C5 20.1444 6.89913 24.2139 9.88348 26.927C11.9183 28.6905 13.1391 31.2678 13.1391 33.9809V34.3878H26.7043V33.9809C26.7043 31.2678 27.9252 28.6905 29.96 26.7913C32.8087 24.0783 34.7078 20.1444 34.7078 15.8035Z" fill="#CACAFF"/>
  <path d="M17.48 20.4157H13.2748C10.9687 20.4157 9.06958 18.5166 9.06958 16.2105C9.06958 13.9044 10.9687 12.0052 13.2748 12.0052C15.5809 12.0052 17.48 13.9044 17.48 16.2105V20.4157ZM13.2748 14.5826C12.3252 14.5826 11.5113 15.3966 11.5113 16.3461C11.5113 17.2957 12.3252 18.1096 13.2748 18.1096H15.0383V16.3461C15.0383 15.2609 14.2244 14.5826 13.2748 14.5826Z" fill="#534ACC"/>
  <path d="M26.433 20.4157H22.2278V16.2105C22.2278 13.9044 24.1269 12.0052 26.433 12.0052C28.7391 12.0052 30.6382 13.9044 30.6382 16.2105C30.6382 18.5166 28.7391 20.4157 26.433 20.4157ZM24.6695 17.9739H26.433C27.3826 17.9739 28.1965 17.16 28.1965 16.2105C28.1965 15.2609 27.3826 14.447 26.433 14.447C25.4834 14.447 24.6695 15.2609 24.6695 16.2105V17.9739Z" fill="#534ACC"/>
  <path d="M23.4492 36.1514H16.2596L14.9031 17.974H24.8057L23.4492 36.1514ZM18.5657 33.7097H21.1431L22.2283 20.4157H17.4805L18.5657 33.7097Z" fill="#534ACC"/>
  <path d="M26.7041 33.7096H13.1389V39H26.7041V33.7096Z" fill="#30219E"/>
</svg>
