<?xml version="1.0" encoding="UTF-8"?>
<svg width="40px" height="40px" viewBox="0 0 40 40" fill="none" xmlns="http://www.w3.org/2000/svg">
  <path d="M39 5H1V34.8571H39V5Z" fill="#CACAFF"/>
  <path d="M4.79983 9.88578C5.39945 9.88578 5.88554 9.39969 5.88554 8.80007C5.88554 8.20045 5.39945 7.71436 4.79983 7.71436C4.2002 7.71436 3.71411 8.20045 3.71411 8.80007C3.71411 9.39969 4.2002 9.88578 4.79983 9.88578Z" fill="#201547"/>
  <path d="M8.32863 9.88578C8.92826 9.88578 9.41435 9.39969 9.41435 8.80007C9.41435 8.20045 8.92826 7.71436 8.32863 7.71436C7.72901 7.71436 7.24292 8.20045 7.24292 8.80007C7.24292 9.39969 7.72901 9.88578 8.32863 9.88578Z" fill="#201547"/>
  <path d="M11.9927 9.88578C12.5923 9.88578 13.0784 9.39969 13.0784 8.80007C13.0784 8.20045 12.5923 7.71436 11.9927 7.71436C11.3931 7.71436 10.907 8.20045 10.907 8.80007C10.907 9.39969 11.3931 9.88578 11.9927 9.88578Z" fill="#201547"/>
  <path d="M34.5214 23.7286H29.3643V27.5286H34.5214V23.7286Z" fill="#8383EA"/>
  <path d="M26.6498 16.2643H3.71411V20.0643H26.6498V16.2643Z" fill="#8383EA"/>
  <path d="M38.7287 16.2643H30.3145V20.0643H38.7287V16.2643Z" fill="#30219E"/>
  <path d="M12.8072 23.7286H3.71436V27.5286H12.8072V23.7286Z" fill="#30219E"/>
  <path d="M25.5645 23.7286H16.4717V27.5286H25.5645V23.7286Z" fill="#534ACC"/>
</svg>
