<?xml version="1.0" encoding="UTF-8"?>
<svg width="32px" height="32px" viewBox="0 0 32 32" version="1.1" xmlns="http://www.w3.org/2000/svg" xmlns:xlink="http://www.w3.org/1999/xlink">
    <g stroke="none" stroke-width="1" fill="none" fill-rule="evenodd">
        <path d="M5.33968022,14.3507312 L30.441197,14.3507312 C31.3021001,14.3507312 32,15.0486311 32,15.9095342 C32,16.7704373 31.3021001,17.4683372 30.441197,17.4683372 L5.35245884,17.4683372 L11.2159626,23.1398314 C11.8347605,23.7383657 11.8511873,24.7252085 11.2526529,25.3440064 C10.6541185,25.9628042 9.66727577,25.979231 9.04847791,25.3806967 L0.475061392,17.0880301 C-0.147737487,16.4856257 -0.159750583,15.4909347 0.44831803,14.8736649 L8.73176832,6.46487078 C9.33593055,5.85156647 10.3228822,5.84415534 10.9361865,6.44831757 C11.5494908,7.05247981 11.556902,8.03943145 10.9527397,8.65273577 L5.33968022,14.3507312 Z" stroke="currentColor" stroke-width="0.6" fill="currentColor" fill-rule="nonzero" transform="translate(16.000000, 15.909534) rotate(-180.000000) translate(-16.000000, -15.909534) "></path>
    </g>
</svg>
