<?xml version="1.0" encoding="UTF-8"?>
<svg width="32px" height="32px" viewBox="0 0 32 32" version="1.1" xmlns="http://www.w3.org/2000/svg" xmlns:xlink="http://www.w3.org/1999/xlink">
    <g fill="#1B79EA">
        <g id="Group">
            <path d="M16,32 C7.163444,32 0,24.836556 0,16 C0,7.163444 7.163444,0 16,0 C24.836556,0 32,7.163444 32,16 C32,24.836556 24.836556,32 16,32 Z M16,29.3333333 C23.3637967,29.3333333 29.3333333,23.3637967 29.3333333,16 C29.3333333,8.63620334 23.3637967,2.66666667 16,2.66666667 C8.63620334,2.66666667 2.66666667,8.63620334 2.66666667,16 C2.66666667,23.3637967 8.63620334,29.3333333 16,29.3333333 Z" fill-rule="nonzero"></path>
            <g transform="translate(14.666667, 8.000000)">
                <rect x="0" y="0" width="2.66666667" height="13.3333333" rx="1.33333333"></rect>
                <circle cx="1.33333333" cy="16" r="1.33333333"></circle>
            </g>
        </g>
    </g>
</svg>