<svg width="32px" height="32px" viewBox="0 0 32 32" version="1.1" xmlns="http://www.w3.org/2000/svg" xmlns:xlink="http://www.w3.org/1999/xlink">
  <path d="M24.206978,18.5181868 L28.3848901,14.3396154 C31.4326923,11.2924725 31.4326923,6.33324176 28.3848901,3.2860989 C25.3374176,0.237967033 20.3785165,0.237967033 17.331044,3.2860989 L11.3017033,9.31543956 C8.2539011,12.3625824 8.2539011,17.3218132 11.3017033,20.368956 C11.7517033,20.8192857 12.2442308,21.201044 12.7654396,21.5181868 L15.9932418,18.2900549 C15.3784066,18.143022 14.7952198,17.8328022 14.3165385,17.3544505 C12.9312637,15.9691758 12.9312637,13.7148901 14.3165385,12.3299451 L20.3458791,6.3006044 C21.7311538,4.91532967 23.9854396,4.91532967 25.3703846,6.3006044 C26.7556593,7.68587912 26.7556593,9.93983516 25.3703846,11.3251099 L23.5990659,13.0967582 C24.328956,14.8146703 24.5307143,16.704011 24.206978,18.5181868 Z" fill="currentColor" ></path>
  <path d="M7.46401099,13.1524725 L3.2860989,17.3307143 C0.237967033,20.3781868 0.237967033,25.3370879 3.2860989,28.3845604 C6.33324176,31.4323626 11.2924725,31.4323626 14.3399451,28.3845604 L20.368956,22.3552198 C23.4167582,19.3077473 23.4164286,14.3488462 20.368956,11.3017033 C19.9192857,10.8513736 19.4267582,10.4696154 18.9055495,10.1524725 L15.6777473,13.3806044 C16.2922527,13.527967 16.8754396,13.8375275 17.3544505,14.3162088 C18.7397253,15.7014835 18.7397253,17.9554396 17.3544505,19.3407143 L11.3247802,25.3700549 C9.93950549,26.7553297 7.68554945,26.7553297 6.30027473,25.3700549 C4.915,23.9847802 4.915,21.7308242 6.30027473,20.3455495 L8.07192308,18.5742308 C7.3417033,16.8563187 7.13994505,14.9666484 7.46401099,13.1524725 Z" fill="currentColor"></path>
</svg>
