<svg xmlns="http://www.w3.org/2000/svg" width="468px" height="302px" viewBox="0 0 460 350">
    <defs>
        <clipPath id="clip-path">
            <path fill="none" d="M77.6 108.67A22.32 22.32 0 0199.92 131v7.66a22.33 22.33 0 01-44.65 0V131a22.32 22.32 0 0122.33-22.33z" clip-rule="evenodd"/>
        </clipPath>
        <style>.cls-2,.cls-9{fill:#8383ea}.cls-12,.cls-2,.cls-4,.cls-5,.cls-6{fill-rule:evenodd}.cls-3,.cls-4{fill:#201547}.cls-10,.cls-5{fill:#534acc}.cls-6,.cls-7{fill:#30219e}.cls-12,.cls-8{fill:#cacaff}</style>
    </defs>
    <path d="M169.32 124.13a13.44 13.44 0 0118.93 1.66l37 44.07a13.43 13.43 0 11-20.58 17.27l-37-44.07a13.43 13.43 0 011.65-18.93z" className="cls-2"/>
    <path d="M137.08 92.44h23.89v29.86h-23.89z" className="cls-3"/>
    <path d="M124.1 119.71h49.74a20.77 20.77 0 0120.78 20.77 23 23 0 01-.13 2.35l-9.31 81.92h-74.6L101.52 145a22.73 22.73 0 0120-25.15 24.44 24.44 0 012.58-.14z" className="cls-2"/>
    <path d="M149 58.68A22.32 22.32 0 01171.34 81v7.65a22.33 22.33 0 11-44.65 0V81A22.32 22.32 0 01149 58.68z" className="cls-4"/>
    <path d="M171.18 80.27h-44.49a22.25 22.25 0 0144.49 0z" className="cls-2"/>
    <path d="M150.35 136.09l9.15 15.4a2.61 2.61 0 01-2.24 3.93H139a2.6 2.6 0 01-2.6-2.6 2.68 2.68 0 01.36-1.33l9.15-15.4a2.6 2.6 0 013.56-.9 2.53 2.53 0 01.88.9z" className="cls-5"/>
    <path d="M110.07 224.24h74.64l8.29 83.69H98.12l11.95-83.69z" className="cls-6"/>
    <circle cx="126.17" cy="85.42" r="5.32" className="cls-3"/>
    <circle cx="170.97" cy="85.42" r="5.32" className="cls-3"/>
    <path d="M222.18 169.28a13.44 13.44 0 00-18.35 4.91l-19.58 33.91a13.43 13.43 0 1023.27 13.43l19.58-33.9a13.43 13.43 0 00-4.92-18.35z" className="cls-2"/>
    <circle cx="189.87" cy="223.39" r="13.44" className="cls-3"/>
    <path d="M396.43 124.13a13.44 13.44 0 0118.93 1.66l37 44.07a13.44 13.44 0 01-20.59 17.27l-37-44.07a13.44 13.44 0 011.66-18.93z" className="cls-2"/>
    <path d="M452 170.05a13.45 13.45 0 00-19-1.16l-40.48 36A13.44 13.44 0 10410.4 225l40.48-36a13.44 13.44 0 001.12-18.95z" className="cls-6"/>
    <path d="M364.19 92.44h23.89v29.86h-23.89z" className="cls-7"/>
    <path d="M351.21 119.71H401a20.77 20.77 0 0120.77 20.77 20.44 20.44 0 01-.13 2.35l-9.31 81.92h-74.6l-9.1-79.75a22.74 22.74 0 0120-25.15 24.25 24.25 0 012.58-.14z" className="cls-2"/>
    <path d="M367.11 140.64h18.05v18.05h-18.05z" className="cls-8"/>
    <path d="M376.13 58.68A22.32 22.32 0 01398.45 81v7.65a22.32 22.32 0 11-44.64 0V81a22.32 22.32 0 0122.32-22.32z" className="cls-6"/>
    <path d="M337.18 224.24h74.64l8.3 83.69h-94.88l11.94-83.69z" className="cls-4"/>
    <circle cx="353.28" cy="85.42" r="5.32" className="cls-7"/>
    <circle cx="398.08" cy="85.42" r="5.32" className="cls-7"/>
    <path d="M231.22 77.51h23.89v29.86h-23.89z" className="cls-9"/>
    <rect width="46.1" height="54" x="220.18" y="42.45" className="cls-9" rx="22.72"/>
    <path d="M266.28 65.49h-46.1a23.05 23.05 0 0146.1 0z" className="cls-5"/>
    <circle cx="266.41" cy="71.14" r="5.32" className="cls-9"/>
    <circle cx="219.66" cy="71.14" r="5.32" className="cls-9"/>
    <path d="M219.08 103.48h46.8a23.37 23.37 0 0123.37 23.37 22.58 22.58 0 01-.12 2.33l-9.35 93.13h-74.6l-9.35-93.13a23.37 23.37 0 0120.92-25.59c.77-.07 1.55-.11 2.33-.11z" className="cls-6"/>
    <path d="M267.64 112.66a17.56 17.56 0 00-9.71 22.87l18.12 44.86a17.58 17.58 0 0032.59-13.17l-18.12-44.85a17.57 17.57 0 00-22.88-9.71zM218.42 112.66a17.58 17.58 0 019.72 22.87L210 180.39a17.58 17.58 0 11-32.59-13.17l18.13-44.85a17.56 17.56 0 0122.88-9.71z" className="cls-6"/>
    <path d="M268.18 155.41a13.43 13.43 0 01-9.5 16.45l-59.47 15.94a13.44 13.44 0 01-7-26l59.47-15.93a13.43 13.43 0 0116.5 9.54z" className="cls-2"/>
    <path d="M285 164.39a11.71 11.71 0 01-14.35 8.29l-17.07-4.57a11.72 11.72 0 116.07-22.65l17.06 4.54a11.71 11.71 0 018.29 14.39z" className="cls-2"/>
    <path d="M216.52 155.41a13.43 13.43 0 009.5 16.45l59.47 15.94a13.44 13.44 0 006.95-26L233 145.91a13.43 13.43 0 00-16.48 9.5z" className="cls-2"/>
    <path d="M197.9 164.39a11.71 11.71 0 0014.35 8.29l17.07-4.57a11.72 11.72 0 00-6.07-22.65L206.18 150a11.71 11.71 0 00-8.28 14.39z" className="cls-2"/>
    <path d="M205.25 222.29h74.64v85.95h-74.64z" className="cls-9"/>
    <circle cx="242.26" cy="128.15" r="10.39" className="cls-10"/>
    <path d="M95.2 100.23a13.31 13.31 0 0113.31 13.31v65.57a13.31 13.31 0 01-26.62 0v-65.57a13.31 13.31 0 0113.31-13.31z" className="cls-6"/>
    <path d="M96.63 162.32A11.52 11.52 0 01111 170l28.3 92.58a11.52 11.52 0 11-22 6.74L89 176.71a11.52 11.52 0 017.63-14.39zM62.86 164.91a11.51 11.51 0 01.57 16.28l-38 40.75a11.52 11.52 0 11-16.85-15.72l38-40.75a11.52 11.52 0 0116.28-.56z" className="cls-5"/>
    <circle cx="54.75" cy="136.71" r="5.32" className="cls-10" transform="rotate(-87.4 54.756 136.712)"/>
    <circle cx="99.55" cy="136.71" r="5.32" className="cls-10"/>
    <path d="M69.11 160h16.94a23.37 23.37 0 0123.26 25.74l-5.71 56.07h-52l-5.7-56.07A23.37 23.37 0 0169.11 160z" className="cls-4"/>
    <path d="M68.39 228.13h18.38a23.37 23.37 0 0123.37 23.37c0 .81 0 1.62-.12 2.42l-5.83 54H51l-5.83-54A23.37 23.37 0 0166 228.26a21.67 21.67 0 012.39-.13z" className="cls-4"/>
    <path d="M53.06 249.37a11.54 11.54 0 01-16.3.28L9 222.85a11.52 11.52 0 1116-16.58l27.75 26.8a11.53 11.53 0 01.31 16.3z" className="cls-5"/>
    <circle cx="52.66" cy="248.26" r="11.69" className="cls-10"/>
    <circle cx="133.18" cy="278.12" r="11.69" className="cls-10"/>
    <path d="M77.9 175.54l9 5.2v10.39l-9 5.19-8.99-5.19v-10.39l8.99-5.2zM77.6 108.67A22.32 22.32 0 0199.92 131v7.66a22.33 22.33 0 01-44.65 0V131a22.32 22.32 0 0122.33-22.33z" className="cls-5"/>
    <g clip-path="url(#clip-path)">
        <circle cx="43.59" cy="110.62" r="25.97" className="cls-7"/>
        <circle cx="90.98" cy="107.37" r="25.97" className="cls-7"/>
    </g>
    <path d="M324.73 86a24.65 24.65 0 0123.53 17.27L355.4 126a19.47 19.47 0 01-18.59 25.31h-27.34a19.48 19.48 0 01-18.12-26.63l8.65-21.89A26.6 26.6 0 01324.73 86z" className="cls-5"/>
    <path d="M314.32 117.11h16.72v29.86h-16.72z" className="cls-8"/>
    <path d="M340.41 112.29v7.95a17.91 17.91 0 11-35.82 0v-7.82c.16 0 .32-.06.5-.1q12.33-.81 16.15-12.13 5.5 12.12 18.19 12.13c.34 0 .67-.01.98-.03z" className="cls-12"/>
    <path d="M313.88 143.73h16.94a23.37 23.37 0 0123.25 25.74l-5.7 56.07h-52l-5.71-56.07a23.38 23.38 0 0123.26-25.74z" className="cls-4"/>
    <circle cx="306.01" cy="118.54" r="5.97" className="cls-8"/>
    <circle cx="339.77" cy="118.54" r="5.97" className="cls-8" transform="rotate(-22.5 339.776 118.542)"/>
    <path d="M296.4 225.53h51.95l11.95 82.4h-75.84l11.94-82.4z" className="cls-5"/>
    <path d="M292.19 182.39l8.42 62.47a9.55 9.55 0 0018.92-2.66l-8.42-62.46zM352.68 182.39l-8.42 62.47a9.56 9.56 0 01-18.93-2.66l8.42-62.46z" className="cls-12"/>
    <circle cx="311.08" cy="248.26" r="11.69" className="cls-8"/>
    <circle cx="333.8" cy="248.26" r="11.69" className="cls-8"/>
    <path d="M322.12 154.12l9.87 7.17-3.77 11.62h-12.21l-3.77-11.62 9.88-7.17z" className="cls-5"/>
</svg>