<svg xmlns="http://www.w3.org/2000/svg" width="800" height="141" viewBox="0 0 800 141">
  <g fill="none" fill-rule="evenodd" transform="translate(0 18)">
    <path fill="#0F0033" d="M182.590623,74.9567395 C192.00369,74.9567395 198.279067,70.201178 201.416757,60.6900596 L219.360416,65.249514 C217.301308,73.5840013 212.864421,80.2515897 206.049751,85.2522816 C199.235081,90.2529735 191.415373,92.7533195 182.590623,92.7533195 C171.608713,92.7533195 162.318211,89.1253658 154.71912,81.8694606 C147.120028,74.6135577 143.320484,65.2985419 143.320484,53.9244176 C143.320484,42.5502934 147.120028,33.2107659 154.71912,25.9058351 C162.318211,18.6009043 171.608713,14.9484366 182.590623,14.9484366 C191.219266,14.9484366 198.8919,17.4242709 205.608514,22.3759349 C212.325128,27.3275989 216.909094,33.8726221 219.360416,42.0110046 L200.681361,47.3058548 C198.230043,37.5986294 192.199797,32.7450166 182.590623,32.7450166 C176.511351,32.7450166 171.584199,34.7060738 167.809166,38.6281836 C164.034133,42.5503383 162.146618,47.6490815 162.146618,53.9244176 C162.146618,60.1997965 164.034133,65.274028 167.809166,69.1471121 C171.584199,73.0201985 176.511351,74.9567395 182.590623,74.9567395 Z M270.642022,15.3896741 C281.623932,15.3896741 290.963459,18.9931139 298.660604,26.1999934 C306.357745,33.4068729 310.206319,42.6483492 310.206319,53.9244176 C310.206319,65.2004884 306.357745,74.4419624 298.660604,81.6488419 C290.963459,88.8557214 281.623932,92.4591611 270.642022,92.4591611 C259.464004,92.4591611 250.001912,88.8557214 242.255741,81.6488419 C234.509571,74.4419624 230.636486,65.2004861 230.636486,53.9244176 C230.636486,42.6483492 234.509571,33.4068729 242.255741,26.1999934 C250.001912,18.9931139 259.464004,15.3896741 270.642022,15.3896741 Z M270.642022,75.8392145 C276.034923,75.8392145 280.839513,73.8046178 285.055781,69.7354288 C289.272049,65.6662376 291.380185,60.3959013 291.380185,53.9244176 C291.380185,47.452934 289.272049,42.1825955 285.055781,38.1134065 C280.839459,34.0442175 276.034874,32.0096208 270.642022,32.0096208 C265.053013,32.0096208 260.125861,34.0197013 255.860565,38.0398669 C251.595269,42.0600325 249.462621,47.3548827 249.462621,53.9244176 C249.462621,60.4939548 251.595269,65.7888051 255.860565,69.8089684 C260.125861,73.829134 265.053013,75.8392145 270.642022,75.8392145 Z M419.584198,14.9484366 C427.428418,14.9484366 434.145036,17.7184292 439.734045,23.2584099 C445.323054,28.7983906 448.117558,35.9317306 448.117558,44.6584297 L448.117558,90.5471319 L428.850186,90.5471319 L428.850186,48.6295674 C428.850186,43.8249826 427.47745,39.9764078 424.731969,37.0838523 C421.986488,34.1912967 418.554644,32.7450166 414.436427,32.7450166 C409.141577,32.7450166 404.974337,34.6325342 401.934697,38.4075648 C398.895058,42.1826403 397.375243,47.7961606 397.375243,55.2481302 L397.375243,90.5471319 L377.960792,90.5471319 L377.960792,48.6295674 C377.960792,43.8249826 376.588052,39.9764078 373.842575,37.0838523 C371.097099,34.1912967 367.66525,32.7450166 363.547033,32.7450166 C358.252183,32.7450166 354.133966,34.608018 351.192382,38.3340252 C348.250799,42.0600325 346.780007,47.6980645 346.780007,55.2481302 L346.780007,90.5471319 L327.365556,90.5471319 L327.365556,17.1546242 L346.780007,17.1546242 L346.780007,23.1848704 C352.270962,17.693913 359.575895,14.9484366 368.694804,14.9484366 C379.284505,14.9484366 387.324831,18.9686022 392.815789,27.0089289 C399.287272,18.9686022 408.210078,14.9484366 419.584198,14.9484366 Z M513.077526,14.9484366 C522.6867,14.9484366 531.094725,18.6499277 538.301605,26.0529142 C545.508484,33.4559008 549.111924,42.7464004 549.111924,53.9244176 C549.111924,65.1024348 545.533,74.3684228 538.375144,81.7223815 C531.217293,89.0763402 522.784752,92.7533195 513.077526,92.7533195 C503.468352,92.7533195 495.379,90.1058944 488.809463,84.8110441 L488.809463,115.550591 L469.395012,115.550591 L469.395012,17.1546242 L488.809463,17.1546242 L488.809463,23.0377912 C495.280946,17.6448896 503.370301,14.9484366 513.077526,14.9484366 Z M509.694705,75.8392145 C515.675924,75.8392145 520.603076,73.8536457 524.476162,69.882508 C528.349249,65.9113703 530.28579,60.5920061 530.28579,53.9244176 C530.28579,47.2567865 528.349249,41.9129084 524.476162,37.8927877 C520.603076,33.8726221 515.675924,31.8625416 509.694705,31.8625416 C504.203748,31.8625416 499.350135,33.92165 495.133867,38.0398669 C490.917597,42.1580838 488.809463,47.452934 488.809463,53.9244176 C488.809463,60.3959013 490.917597,65.6662376 495.133867,69.7354288 C499.350135,73.8046178 504.203748,75.8392145 509.694705,75.8392145 Z M640.104906,17.1546242 L640.104906,90.5471319 L620.690455,90.5471319 L620.690455,84.8110441 C614.12092,90.1058944 606.031566,92.7533195 596.422391,92.7533195 C586.715166,92.7533195 578.282627,89.0763402 571.124773,81.7223815 C563.96692,74.3684228 560.387994,65.1024348 560.387994,53.9244176 C560.387994,42.7464004 563.991434,33.4559008 571.198313,26.0529142 C578.405197,18.6499277 586.813224,14.9484366 596.422391,14.9484366 C606.129617,14.9484366 614.218971,17.6448896 620.690455,23.0377912 L620.690455,17.1546242 L640.104906,17.1546242 Z M599.805212,75.8392145 C605.29617,75.8392145 610.149782,73.8046178 614.366051,69.7354288 C618.582319,65.6662376 620.690455,60.3959013 620.690455,53.9244176 C620.690455,47.452934 618.582319,42.1580838 614.366051,38.0398669 C610.149782,33.92165 605.29617,31.8625416 599.805212,31.8625416 C593.823976,31.8625416 588.896824,33.8726221 585.023755,37.8927877 C581.150671,41.9129533 579.214128,47.2568269 579.214128,53.9244176 C579.214128,60.5920061 581.150671,65.9113703 585.023755,69.882508 C588.89684,73.8536457 593.823994,75.8392145 599.805212,75.8392145 Z M656.969985,71.132681 L676.531515,67.1615433 C677.41399,73.8291385 682.463707,77.1629338 691.68067,77.1629271 C695.21057,77.1629271 698.005074,76.4765591 700.064182,75.1038187 C702.123291,73.7310782 703.152845,71.9661281 703.152845,69.8089684 C703.152845,66.5732266 700.456392,64.367039 695.06349,63.1904056 L680.061415,60.1017429 C673.393826,58.7290047 668.270569,56.2286588 664.691641,52.6007051 C661.112713,48.9727536 659.323251,44.5113505 659.323251,39.2165003 C659.323251,32.0586487 662.044216,26.2245051 667.486145,21.7140786 C672.928075,17.2036521 680.208494,14.9484366 689.327403,14.9484366 C697.857995,14.9484366 704.991335,16.9585172 710.727422,20.9786827 C716.46351,24.9988483 719.968899,30.2446707 721.243583,36.7161543 L702.711608,40.3931337 C702.319398,37.3534989 700.873118,34.9021764 698.372772,33.039175 C695.872426,31.1761736 692.661196,30.2446707 688.739086,30.2446707 C685.209186,30.2446707 682.659814,30.9555549 681.090969,32.3773187 C679.522124,33.7990826 678.737702,35.4904931 678.737702,37.4515502 C678.737702,40.5892407 680.94389,42.6483492 685.356265,43.6288755 L702.858687,47.452934 C709.134063,48.8256745 713.914136,51.3505321 717.198906,55.0275114 C720.483676,58.7044908 722.126058,63.0923521 722.126058,68.1910975 C722.126058,76.1333729 719.208987,82.2126469 713.374848,86.428915 C707.540682,90.6451854 699.720974,92.7533195 689.915719,92.7533195 C681.189023,92.7533195 673.73701,90.9638555 667.559685,87.3849297 C661.38236,83.8060016 657.85246,78.3885861 656.969985,71.132681 Z M731.931337,71.132681 L751.492867,67.1615433 C752.375342,73.8291385 757.425059,77.1629338 766.642022,77.1629271 C770.171922,77.1629271 772.966426,76.4765591 775.025535,75.1038187 C777.084643,73.7310782 778.114197,71.9661281 778.114197,69.8089684 C778.114197,66.5732266 775.417744,64.367039 770.024843,63.1904056 L755.022767,60.1017429 C748.355179,58.7290047 743.231921,56.2286588 739.652993,52.6007051 C736.074065,48.9727536 734.284603,44.5113505 734.284603,39.2165003 C734.284603,32.0586487 737.005568,26.2245051 742.447498,21.7140786 C747.889427,17.2036521 755.169846,14.9484366 764.288755,14.9484366 C772.819347,14.9484366 779.952687,16.9585172 785.688775,20.9786827 C791.424862,24.9988483 794.930251,30.2446707 796.204936,36.7161543 L777.67296,40.3931337 C777.28075,37.3534989 775.83447,34.9021764 773.334124,33.039175 C770.833778,31.1761736 767.622548,30.2446707 763.700438,30.2446707 C760.170538,30.2446707 757.621166,30.9555549 756.052321,32.3773187 C754.483476,33.7990826 753.699054,35.4904931 753.699054,37.4515502 C753.699054,40.5892407 755.905242,42.6483492 760.317617,43.6288755 L777.820039,47.452934 C784.095415,48.8256745 788.875489,51.3505321 792.160258,55.0275114 C795.445028,58.7044908 797.087411,63.0923521 797.087411,68.1910975 C797.087411,76.1333729 794.170339,82.2126469 788.3362,86.428915 C782.502034,90.6451854 774.682326,92.7533195 764.877072,92.7533195 C756.150375,92.7533195 748.698362,90.9638555 742.521037,87.3849297 C736.343712,83.8060016 732.813812,78.3885861 731.931337,71.132681 Z"/>
    <g transform="translate(0 .665)">
      <circle cx="53.112" cy="53.112" r="53.112" fill="#E20041"/>
      <g fill="#FFF" transform="translate(28.599 28.599)">
        <polygon points="0 0 49.026 0 49.026 49.026"/>
        <polygon points="0 0 49.026 0 49.026 49.026" opacity=".7" transform="rotate(-180 24.513 24.513)"/>
      </g>
    </g>
  </g>
</svg>
