<svg xmlns="http://www.w3.org/2000/svg" width="468px" height="302px" viewBox="0 0 460 350">
    <defs>
        <clipPath id="clip-path">
            <path fill="#879dd2" d="M262.72 124.54h51.83v26.11h-51.83a3.07 3.07 0 01-3.09-3.07v-20a3.08 3.08 0 013.09-3.04z" clip-rule="evenodd"/>
        </clipPath>
        <clipPath id="clip-path-3">
            <path d="M259.63 124.54h55.68v26.11h-55.68z" className="cls-3"/>
        </clipPath>
        <clipPath id="clip-path-4">
            <path fill="none" d="M16.96 243.68h58.46v69.6H16.96z"/>
        </clipPath>
        <style>.cls-2,.cls-3{fill:#879dd2}.cls-11,.cls-12,.cls-2,.cls-21,.cls-26,.cls-27,.cls-8,.cls-9{fill-rule:evenodd}.cls-11,.cls-5{fill:#534acc}.cls-6,.cls-9{fill:#8383ea}.cls-27,.cls-7{fill:#30219e}.cls-10,.cls-8{fill:#cacaff}.cls-12,.cls-13{fill:#201547}.cls-15{clip-path:url(#clip-path)}.cls-17{fill:#fff}.cls-20{fill:#fa4616}.cls-21,.cls-24{fill:#ff671f}.cls-22,.cls-26{fill:#ee2737}.cls-23{fill:#e40046}.cls-25{fill:#ff8200}</style>
    </defs>
    <ellipse cx="379.16" cy="191.46" className="cls-5" rx="71.32" ry="33.87" transform="rotate(-89.64 379.15 191.461)"/>
    <ellipse cx="420.6" cy="216.8" className="cls-6" rx="50.12" ry="23.85" transform="rotate(-44.69 420.55 216.79)"/>
    <ellipse cx="340.27" cy="210.99" className="cls-7" rx="30.98" ry="65.12" transform="rotate(-50.46 340.282 210.992)"/>
    <path d="M412.8 313.28h-67.28l-10.89-69.24h89.06l-10.89 69.24z" className="cls-8"/>
    <path d="M420.56 263.95l3.13-19.91h-89.06l3.13 19.91h82.8z" className="cls-9"/>
    <path d="M334.63 244.04h89.06v15.92h-89.06z" className="cls-10"/>
    <path d="M236.21 297.58l-4.57-29.07a1.89 1.89 0 00-1.87-1.59h-46.35a1.89 1.89 0 00-1.87 1.59L177 297.58a10.84 10.84 0 01-8 8.79l-12.46 3.2a1.88 1.88 0 00.47 3.71h99.25a1.88 1.88 0 00.47-3.71l-12.46-3.2a10.84 10.84 0 01-8-8.79" className="cls-9"/>
    <path d="M179.65 280.59h53.89l-1.31-8.32h-51.27l-1.31 8.32z" className="cls-11"/>
    <path d="M352.39 276.06H60.8a5.69 5.69 0 01-5.69-5.66V67.83a7.18 7.18 0 017.18-7.14H350.9a7.19 7.19 0 017.19 7.14V270.4a5.7 5.7 0 01-5.7 5.66" className="cls-9"/>
    <path d="M358.08 244h-303V68a7.3 7.3 0 017.33-7.28h288.34a7.3 7.3 0 017.33 7.28zM211.89 259.19a5.3 5.3 0 11-5.29-5.26 5.27 5.27 0 015.29 5.26" className="cls-12"/>
    <path d="M72.23 78.94h268.73v147.08H72.23z" className="cls-10"/>
    <path d="M289.9 181.96h37.85v30.86H289.9z" className="cls-5"/>
    <path d="M173.02 105.34h141.51v92.16H173.02z" className="cls-7"/>
    <ellipse cx="194.67" cy="173.69" className="cls-5" rx="13.15" ry="13.06"/>
    <ellipse cx="275.09" cy="173.69" className="cls-13" rx="13.15" ry="13.06"/>
    <path d="M184.62 124.54h62.63a3.09 3.09 0 013.1 3.07v20a3.08 3.08 0 01-3.1 3.07h-62.63a3.08 3.08 0 01-3.1-3.07v-20a3.09 3.09 0 013.1-3.07z" className="cls-12"/>
    <path fill="none" fill-rule="evenodd" d="M262.72 124.54h51.83v26.11h-51.83a3.07 3.07 0 01-3.09-3.07v-20a3.08 3.08 0 013.09-3.04z"/>
    <path d="M262.72 124.54h51.83v26.11h-51.83a3.07 3.07 0 01-3.09-3.07v-20a3.08 3.08 0 013.09-3.04z" className="cls-2"/>
    <g className="cls-15">
        <path d="M262.72 124.54h51.83v26.11h-51.83a3.07 3.07 0 01-3.09-3.07v-20a3.08 3.08 0 013.09-3.04z" className="cls-2"/>
        <g className="cls-15">
            <path d="M259.63 124.54h55.68v26.11h-55.68z" className="cls-3"/>
            <g clip-path="url(#clip-path-3)">
                <path d="M259.63 124.54h199.51v198.14H259.63z" className="cls-3"/>
            </g>
        </g>
    </g>
    <path d="M262.72 124.54h51.83v26.11h-51.83a3.07 3.07 0 01-3.09-3.07v-20a3.08 3.08 0 013.09-3.04zM221 161.4h19.92a13.06 13.06 0 110 26.12H221a3.08 3.08 0 01-3.09-3.08v-20a3.08 3.08 0 013.09-3.04z" className="cls-9"/>
    <path d="M98.64 105.34h51.79v51.79H98.64z" className="cls-5"/>
    <circle cx="106.82" cy="113.52" r="2.9" className="cls-17"/>
    <circle cx="115.25" cy="113.52" r="2.9" fill="#fff" opacity=".5"/>
    <circle cx="123.68" cy="113.52" r="2.9" fill="#fff" opacity=".2"/>
    <path d="M98.64 167.04h51.79v10.27H98.64zM98.64 187.23h27.94v10.27H98.64z" className="cls-6"/>
    <rect width="30.11" height="30.11" x="243.06" y="236.32" className="cls-17" rx="1.12" transform="rotate(-6.14 258.294 251.61)"/>
    <path d="M251.12 245.32h4.37v4.37h-4.37z" className="cls-20" transform="rotate(-6.14 253.548 247.709)"/>
    <path d="M255.24 245.1l4.81 3.87-4.34.47-.47-4.34z" className="cls-21"/>
    <path d="M251.59 249.66h4.37v4.37h-4.37z" className="cls-22" transform="rotate(-6.14 253.97 252.032)"/>
    <path d="M252.52 258.35h4.37v4.37h-4.37z" className="cls-23" transform="rotate(-6.14 254.909 260.684)"/>
    <path d="M255.93 249.19h4.37v4.37h-4.37z" className="cls-20" transform="rotate(-6.14 258.294 251.61)"/>
    <path d="M260.27 248.73h4.37v4.37h-4.37z" className="cls-24" transform="rotate(-6.14 262.715 251.099)"/>
    <path d="M259.34 240.04h4.37v4.36h-4.37z" className="cls-25" transform="rotate(-6.14 261.777 242.447)"/>
    <path d="M256.18 253.78l4.34-.46.47 4.34-4.81-3.88z" className="cls-26"/>
    <path d="M260.74 253.07h4.37v4.37h-4.37z" className="cls-20" transform="rotate(-6.14 263.138 255.422)"/>
    <path d="M93.02 269.15h35.49v11.34H93.02z" className="cls-5" transform="rotate(90 110.765 274.825)"/>
    <path d="M110.88 274.92h35.49v11.34h-35.49z" className="cls-5" transform="rotate(90 128.62 280.59)"/>
    <path d="M19.08 198a5.72 5.72 0 015.72 5.72v57.2H13.36V203.7a5.72 5.72 0 015.72-5.7z" className="cls-13" transform="rotate(-16.3 18.665 227.595)"/>
    <path d="M42.3 253.4L31 255l-8.87-62.29L25 182.34a1.58 1.58 0 012.86-.41l5.63 9.18z" className="cls-9"/>
    <path d="M25 182.34l-2.8 10.24L33.36 191l-5.55-9a1.58 1.58 0 00-2.81.34z" className="cls-11"/>
    <path d="M25 182.34l-.86 3.17 5.44-.78-1.72-2.8a1.58 1.58 0 00-2.86.41z" className="cls-12"/>
    <path d="M59 273.62l-10-5.52L79.36 213l8.52-6.58a1.57 1.57 0 012.53 1.39l-1 10.72z" className="cls-11"/>
    <path d="M87.88 206.42l-8.4 6.49 9.92 5.47 1-10.57a1.57 1.57 0 00-2.52-1.39z" className="cls-8"/>
    <path d="M87.88 206.42l-2.6 2 4.81 2.66.32-3.28a1.57 1.57 0 00-2.53-1.38z" className="cls-27"/>
    <path d="M16.96 243.68h58.46v69.6H16.96z" className="cls-7"/>
    <g clip-path="url(#clip-path-4)">
        <rect width="76.8" height="26.14" x="37.02" y="267.52" className="cls-17" rx="1.47" transform="rotate(-4.38 75.548 280.874)"/>
        <path d="M95 272.49h1.97v11.06H95z" className="cls-13" transform="rotate(-4.38 96.075 278.255)"/>
        <path d="M102.48 274.88a4.12 4.12 0 10.68 8.21 4.48 4.48 0 003.29-1.65l-1.14-1a3 3 0 01-2.11 1.07 2.25 2.25 0 01-2.45-1.66l6-.46c0-2.94-1.4-4.71-4.24-4.49zm-1.88 3.64a2.13 2.13 0 012-2.12 1.92 1.92 0 012.22 1.79zM60.85 278.06a3.09 3.09 0 00-2.78 1.8l-.07-1.51-2 .16.62 8.08 2-.16-.31-4a2.13 2.13 0 011.9-2.43 1.69 1.69 0 011.94 1.69l.34 4.47 2-.15-.39-5a2.83 2.83 0 00-3.25-2.95z" className="cls-12"/>
        <path d="M65.94 277.68h1.97v8.1h-1.97z" className="cls-13" transform="rotate(-4.38 66.995 281.987)"/>
        <path d="M80 276.59a3 3 0 00-2.85 2.17 2.71 2.71 0 00-2.97-1.76 3 3 0 00-2.72 1.79l-.11-1.49-2 .15.62 8.08 2-.15-.31-4a2.13 2.13 0 011.88-2.48 1.66 1.66 0 011.89 1.71l.34 4.47 2-.16-.31-4a2.12 2.12 0 011.87-2.48 1.66 1.66 0 011.9 1.7l.35 4.47 2-.15-.38-5a2.82 2.82 0 00-3.2-2.87zM89.38 275.88a3.09 3.09 0 00-2.61 1.6l-.33-4.27-2 .15.84 11 2-.15-.1-1.31a3.15 3.15 0 002.82 1.2c2.29-.18 3.66-1.94 3.48-4.37s-1.86-4-4.14-3.85zm.06 6.56a2.45 2.45 0 112.08-2.62 2.26 2.26 0 01-2.08 2.62z" className="cls-12"/>
        <path d="M65.48 274.74h1.97v1.97h-1.97z" className="cls-23" transform="matrix(1 -.08 .08 1 -20.88 5.89)"/>
        <path d="M43.96 278.34h3.03v3.03h-3.03z" className="cls-20" transform="rotate(-4.38 45.592 280.121)"/>
        <path d="M46.87 278.23l3.25 2.78-3.02.23-.23-3.01z" className="cls-21"/>
        <path d="M44.19 281.35h3.03v3.03h-3.03z" className="cls-22" transform="rotate(-4.38 45.738 283.139)"/>
        <path d="M44.65 287.39h3.03v3.03h-3.03z" className="cls-23" transform="rotate(-4.38 46.162 289.178)"/>
        <path d="M47.21 281.12h3.03v3.03h-3.03z" className="cls-20" transform="rotate(-4.38 48.76 282.861)"/>
        <path d="M50.23 280.89h3.03v3.03h-3.03z" className="cls-24" transform="rotate(-4.38 51.778 282.715)"/>
        <path d="M49.76 274.86h3.03v3.02h-3.03z" className="cls-25" transform="rotate(-4.38 51.354 276.676)"/>
        <path d="M47.33 284.26l3.02-.23.23 3.02-3.25-2.79z" className="cls-26"/>
        <path d="M50.46 283.91h3.03v3.03h-3.03z" className="cls-20" transform="rotate(-4.38 52.055 285.737)"/>
    </g>
    <path d="M9.71 214.37h11.44v4.85H9.71z" className="cls-5" transform="rotate(-16.13 15.427 216.787)"/>
    <path d="M29.53 95.31h57.75V37.55H42.39L29.53 50.41v44.9z" className="cls-11"/>
    <path d="M29.53 50.41h12.86V37.55L29.53 50.41z" className="cls-27"/>
</svg>