<svg xmlns="http://www.w3.org/2000/svg" width="468px" height="302px" viewBox="0 0 460 350">
    <defs>
        <style>.cls-1{fill:#cacaff}.cls-2{fill:#8383ea}.cls-12,.cls-3,.cls-7{fill:none;stroke-miterlimit:10}.cls-3{stroke:#201547}.cls-3,.cls-7{stroke-width:4px}.cls-4{fill:#201547}.cls-5{fill:#534acc}.cls-12,.cls-7{stroke:#fff}.cls-8{fill:#fff}.cls-12{stroke-width:3.57px}.cls-13{fill:#30219e}</style>
    </defs>
    <path d="M5.22 130.59h172.29v88.3H5.22z" className="cls-1"/>
    <path d="M18.7 179.71h45.4v22.7H18.7z" className="cls-2"/>
    <path d="M43.59 188.09h12.42M43.59 194.65h12.42" className="cls-3"/>
    <circle cx="30.58" cy="191.11" r="4.26" className="cls-4"/>
    <path d="M18.7 147.08h45.4v22.7H18.7z" className="cls-5"/>
    <path d="M43.59 155.15h12.42M43.59 161.71h12.42" className="cls-3"/>
    <path d="M30.58 153.78l2.68 4.65 2.68 4.64H25.22l2.68-4.64 2.68-4.65z" className="cls-4"/>
    <path fill="#1c2b87" d="M73.56 179.71h45.4v22.7h-45.4z"/>
    <path d="M98.46 188.09h12.41M98.46 194.65h12.41" className="cls-7"/>
    <circle cx="85.44" cy="191.11" r="4.26" className="cls-8"/>
    <path d="M73.56 147.08h45.4v22.7h-45.4z" className="cls-2"/>
    <path d="M98.46 155.15h12.41M98.46 161.71h12.41" className="cls-3"/>
    <path d="M85.44 153.78l2.68 4.65 2.68 4.64H80.08l2.68-4.64 2.68-4.65z" className="cls-4"/>
    <path fill="#1f1747" d="M106.03 75.17h258.32v199.15H106.03z"/>
    <circle cx="117.79" cy="86.93" r="2.83" className="cls-8"/>
    <circle cx="127.31" cy="86.93" r="2.83" fill="#fff" opacity=".5"/>
    <circle cx="136.82" cy="86.93" r="2.83" fill="#fff" opacity=".2"/>
    <path d="M303.17 146.25l-5.23-3.93-5.22-3.93 5.22-3.93 5.23-3.94M329.81 146.25l5.23-3.93 5.22-3.93-5.22-3.93-5.23-3.94M321.95 130.1l-10.92 17.72" className="cls-12"/>
    <path d="M123.9 107.99h63.01v8.57H123.9z" className="cls-13"/>
    <path d="M123.9 170.09h63.01v8.57H123.9zM175.92 149.39h56.98v8.57h-56.98zM123.9 128.69h46.45v8.57H123.9zM204.13 128.69h41.89v8.57h-41.89z" className="cls-5"/>
    <path d="M215.87 170.09h41.89v8.57h-41.89z" className="cls-13"/>
    <path d="M265.58 170.09h26.23v8.57h-26.23zM180.42 128.69h12.99v8.57h-12.99z" className="cls-1"/>
    <path d="M196.54 107.99h30.54v8.57h-30.54z" className="cls-2"/>
    <path d="M253.84 128.69h12.99v8.57h-12.99zM123.9 149.39h18.41v8.57H123.9z" className="cls-1"/>
    <path d="M149.67 149.39h18.41v8.57h-18.41zM175.92 190.98h56.98v8.57h-56.98z" className="cls-2"/>
    <path d="M123.9 190.98h18.41v8.57H123.9z" className="cls-1"/>
    <path d="M149.67 190.98h18.41v8.57h-18.41z" className="cls-5"/>
    <path d="M240.72 149.39h18.41v8.57h-18.41zM194.74 170.09h13.19v8.57h-13.19zM123.9 247.92h63.01v8.57H123.9z" className="cls-1"/>
    <path d="M175.92 227.22h56.98v8.57h-56.98zM215.87 247.92h28.36v8.57h-28.36zM123.9 227.22h18.41v8.57H123.9z" className="cls-5"/>
    <path d="M149.67 227.22h18.41v8.57h-18.41z" className="cls-13"/>
    <path d="M240.72 227.22h18.41v8.57h-18.41z" className="cls-1"/>
    <path d="M194.74 247.92h13.19v8.57h-13.19z" className="cls-2"/>
    <path d="M240.72 190.98h13.19v8.57h-13.19zM307.29 192.64h136.35v116.82H307.29z" className="cls-5"/>
    <path d="M375.47 224.21v22.83M375.47 259.66v24.19M333.69 259.66v24.19M417.24 259.66v24.19M417.24 247.04v-12.02h-83.55v12.02" className="cls-7"/>
    <path d="M318.92 245.83h29.54v14.62h-29.54zM360.69 245.83h29.54v14.62h-29.54zM360.69 210.95h29.54v14.62h-29.54zM402.47 245.83h29.54v14.62h-29.54zM318.92 276.54h29.54v14.62h-29.54zM360.69 276.54h29.54v14.62h-29.54zM402.47 276.54h29.54v14.62h-29.54z" className="cls-1"/>
    <path d="M253.44 39.8h57.74v57.74h-57.74z" className="cls-2"/>
    <circle cx="262.36" cy="48.73" r="2.86" className="cls-4"/>
    <circle cx="271.12" cy="48.73" r="2.86" className="cls-13"/>
    <circle cx="279.87" cy="48.73" r="2.86" className="cls-5"/>
    <path d="M449.05 112.13L442.8 115a24.48 24.48 0 00-4-3.5l2.43-6.59-12.9-4.76-2.5 6.85a23.71 23.71 0 00-5 .25l-3.07-6.66-12.48 5.76 3.02 6.65a25.51 25.51 0 00-3.46 3.67l-6.84-2.54-4.74 12.87 6.59 2.43a24.11 24.11 0 00.08 5.3l-6.25 2.88 5.76 12.49 5.94-2.74a24.56 24.56 0 004.07 4l-2.21 6 12.9 4.76 2.13-5.77a24.67 24.67 0 005.94-.17l2.55 5.53 12.49-5.76-2.55-5.53a24.44 24.44 0 004-4.4l5.77 2.13 4.76-12.9-6-2.22a24 24 0 00-.36-5.66l5.94-2.74-5.75-12.49zm-16.39 25.09c-6.66 8.18-19 3.62-18.77-6.92a8.74 8.74 0 011.94-5.25c6.65-8.18 19-3.62 18.76 6.92a8.66 8.66 0 01-1.93 5.25z" className="cls-13"/>
</svg>